<svg xmlns="http://www.w3.org/2000/svg" width="60" height="85" viewBox="0 0 60 85">
  <defs>
    <linearGradient id="a" x1="58.528%" x2="41.507%" y1="104.54%" y2="-4.162%">
      <stop offset="0%" stop-color="#85AEFD"/>
      <stop offset="100%" stop-color="#D8E8FF"/>
    </linearGradient>
    <linearGradient id="b" x1="46.768%" x2="32.385%" y1="56.435%" y2="83.417%">
      <stop offset="0%" stop-color="#C3FDFF"/>
      <stop offset="100%" stop-color="#83CDFB"/>
    </linearGradient>
    <linearGradient id="c" x1="54.17%" x2="68.263%" y1="43.391%" y2="20.978%">
      <stop offset="0%" stop-color="#C3FDFF"/>
      <stop offset="100%" stop-color="#83CDFB"/>
    </linearGradient>
    <linearGradient id="d" x1="52.301%" x2="58.698%" y1="63.863%" y2="102.399%">
      <stop offset="0%" stop-color="#C3FDFF"/>
      <stop offset="100%" stop-color="#83CDFB"/>
    </linearGradient>
    <linearGradient id="e" x1="50.81%" x2="36.055%" y1="12.919%" y2="35.286%">
      <stop offset="0%" stop-color="#C3FDFF"/>
      <stop offset="100%" stop-color="#83CDFB"/>
    </linearGradient>
  </defs>
  <g fill="none" fill-rule="evenodd">
    <path fill="url(#a)" d="M25.059 0c-.471 2.463-.706 5.043-1.059 7.505-.824 4.809-1.412 9.734-2.471 14.543-1.411 6.685-5.411 11.024-12.118 12.899-3.058.939-6.235 1.525-9.411 2.229.353 0 .706 0 1.058.118 3.883.703 7.648 1.524 11.295 3.283 3.765 1.759 6.588 4.456 8.235 8.327 1.882 4.221 2.471 8.677 3.059 13.134.588 3.988.941 7.975 1.295 11.962 0 0 .117 0 0 0 .352-2.345.705-4.691.822-7.154.589-4.69 1.06-9.499 2.353-14.073 1.06-3.753 2.706-7.154 5.766-9.734 2.705-2.227 5.882-3.517 9.176-4.456 2.235-.586 4.589-1.056 6.941-1.641-3.764-.47-7.529-1.174-11.059-2.464-5.412-1.993-8.705-5.745-10.353-11.258-1.294-4.691-1.882-9.499-2.471-14.307-.353-2.932-.706-5.981-1.058-8.913z" transform="translate(5 5)"/>
    <path fill="url(#b)" d="m25.059 0-1 37.941L50 36.942c-3.764-.47-7.529-1.174-11.059-2.464-5.412-1.993-8.705-5.745-10.353-11.258-1.294-4.691-1.882-9.499-2.471-14.307-.353-2.932-.706-5.981-1.058-8.913z" transform="translate(5 5)"/>
    <path fill="url(#c)" d="M1.088 36.942c-.363.077-.724.154-1.088.234.353 0 .706 0 1.058.118 3.883.703 7.648 1.524 11.295 3.283 3.765 1.759 6.588 4.456 8.235 8.327 1.882 4.221 2.471 8.677 3.059 13.134.588 3.988.941 7.975 1.295 11.962l.117-.794 1-37.264-24.971 1z" transform="translate(5 5)"/>
    <path fill="url(#d)" d="M25.059 0c-.471 2.463-.706 5.043-1.059 7.505-.823 4.809-1.412 9.734-2.471 14.543-1.411 6.685-5.411 11.024-12.118 12.899-2.709.832-5.51 1.389-8.323 1.995h23.971V0z" transform="translate(5 5)"/>
    <path fill="url(#e)" d="M25.059 36.942v36.264c.31-2.082.601-4.174.705-6.36.589-4.69 1.06-9.499 2.353-14.073 1.06-3.753 2.706-7.154 5.766-9.734 2.705-2.227 5.882-3.517 9.176-4.456 2.235-.586 4.589-1.056 6.941-1.641H25.059z" transform="translate(5 5)"/>
  </g>
</svg>
